<svg id="Layer_1" data-name="Layer 1" xmlns="http://www.w3.org/2000/svg" viewBox="0 0 900 300"><defs><style>.cls-1{fill:#abcb57;}.cls-2{fill:#d8d9dd;}.cls-3,.cls-5{fill:#5b5b5f;isolation:isolate;}.cls-3{opacity:0.3;}.cls-4{fill:#808083;}.cls-5{opacity:0.4;}.cls-6{font-size:198.43px;fill:#474747;font-family:PoiretOne-Regular, Poiret One;}</style></defs><title>pitly</title><path class="cls-1" d="M333.6,40.05a37.21,37.21,0,0,0-51,13.71,37.65,37.65,0,0,0,2,40.46l-7.72,13.45,26.5,15.39L311,109.72a35,35,0,0,0,3.84.21,37.62,37.62,0,0,0,9.67-1.28,37.12,37.12,0,0,0,22.7-17.48A37.6,37.6,0,0,0,333.6,40.05Zm-3.71,41.16a17.2,17.2,0,0,1-23.58,6.38A17.55,17.55,0,0,1,300,63.72a17.2,17.2,0,0,1,10.52-8.12A17.54,17.54,0,0,1,315,55a17.06,17.06,0,0,1,8.59,2.33A17.54,17.54,0,0,1,329.89,81.21Z"/><path class="cls-2" d="M252.73,211.28,303.4,123l-26.51-15.39-39,67.93c-3.4,5.92-43.43,73.51-16,89.44Z"/><path class="cls-3" d="M333.6,40.05a37.21,37.21,0,0,0-51,13.71,37.63,37.63,0,0,0,2,40.45l-7.72,13.46h0l-39,67.89c-3.4,5.92-43.42,73.51-16,89.44l30.83-53.72L303.4,123h0l7.63-13.3a35,35,0,0,0,3.84.21,37.62,37.62,0,0,0,9.67-1.28,37.12,37.12,0,0,0,22.7-17.48A37.6,37.6,0,0,0,333.6,40.05Zm-3.71,41.16a17.2,17.2,0,0,1-23.58,6.38A17.55,17.55,0,0,1,300,63.72a17.2,17.2,0,0,1,10.52-8.12A17.54,17.54,0,0,1,315,55a17.06,17.06,0,0,1,8.59,2.33A17.54,17.54,0,0,1,329.89,81.21Z"/><path class="cls-1" d="M256.62,107.67,248.9,94.21a37.63,37.63,0,0,0,2-40.45,37.19,37.19,0,0,0-51-13.71,37.58,37.58,0,0,0-13.64,51.12A37.1,37.1,0,0,0,209,108.65a37.7,37.7,0,0,0,9.68,1.28,35.29,35.29,0,0,0,3.84-.21l7.65,13.34ZM214.13,89.33a17.21,17.21,0,0,1-10.53-8.12,17.55,17.55,0,0,1,6.34-23.87,17.12,17.12,0,0,1,8.6-2.33,17.4,17.4,0,0,1,4.46.59,17.21,17.21,0,0,1,10.53,8.12,17.55,17.55,0,0,1-6.34,23.87A17.05,17.05,0,0,1,214.13,89.33Z"/><path class="cls-2" d="M280.77,211.28,230.1,123l26.5-15.39,39,67.93c3.4,5.92,43.42,73.52,16,89.44Z"/><ellipse class="cls-4" cx="267.41" cy="154.94" rx="9.42" ry="9.47"/><polygon class="cls-5" points="272.26 151.82 270.49 150.06 267.41 153.16 264.32 150.06 262.55 151.82 265.64 154.94 262.55 158.04 264.32 159.81 267.41 156.71 270.49 159.81 272.26 158.04 269.17 154.94 272.26 151.82"/><text class="cls-6" transform="translate(408.38 216.18)">Pitly</text></svg>